<?xml version="1.0" standalone="no"?>
<!DOCTYPE svg PUBLIC "-//W3C//DTD SVG 20010904//EN"
 "http://www.w3.org/TR/2001/REC-SVG-20010904/DTD/svg10.dtd">
<svg version="1.0" xmlns="http://www.w3.org/2000/svg"
 width="1024.000000pt" height="1024.000000pt" viewBox="0 0 1024.000000 1024.000000"
 preserveAspectRatio="xMidYMid meet">

<g transform="translate(0.000000,1024.000000) scale(0.100000,-0.100000)"
fill="white" stroke="none">
<path d="M8565 9130 c-246 -65 -525 -238 -875 -543 -63 -55 -466 -450 -895
-878 l-780 -777 -225 43 c-124 24 -544 105 -935 180 -390 75 -1083 207 -1540
295 -1476 283 -1566 300 -1607 300 -22 0 -54 -7 -72 -15 -18 -9 -125 -109
-238 -223 -168 -169 -208 -215 -218 -249 -15 -50 -7 -117 21 -162 24 -39 -50
-3 1931 -946 l1428 -680 -698 -697 c-383 -384 -703 -698 -710 -698 -7 0 -106
27 -220 59 -678 195 -1158 321 -1222 321 -22 0 -58 -9 -78 -19 -50 -26 -428
-418 -447 -465 -8 -19 -15 -50 -15 -68 0 -39 29 -106 56 -130 10 -9 379 -215
819 -458 440 -244 808 -450 817 -459 9 -9 211 -367 448 -796 237 -429 442
-796 456 -815 44 -65 122 -92 204 -70 39 10 73 40 248 214 112 110 212 218
223 238 10 21 19 56 19 78 0 64 -79 365 -295 1131 -47 165 -85 305 -85 312 0
7 314 326 698 709 l697 698 779 -1638 c428 -900 790 -1654 802 -1674 40 -63
122 -90 204 -68 39 10 72 39 252 218 114 113 214 220 223 238 8 18 15 52 15
76 -1 23 -185 1001 -410 2173 l-409 2130 778 780 c428 429 823 832 878 895
279 320 445 577 525 813 43 127 50 273 19 374 -38 124 -128 215 -250 253 -82
26 -219 26 -316 0z"/>
</g>
</svg>
