<?xml version="1.0" standalone="no"?>
<!DOCTYPE svg PUBLIC "-//W3C//DTD SVG 20010904//EN"
 "http://www.w3.org/TR/2001/REC-SVG-20010904/DTD/svg10.dtd">
<svg version="1.0" xmlns="http://www.w3.org/2000/svg"
 width="1440.000000pt" height="1000.000000pt" viewBox="0 0 1440.000000 1000.000000"
 preserveAspectRatio="xMidYMid meet">

<g transform="translate(0.000000,1000.000000) scale(0.100000,-0.100000)"
fill="#000000" stroke="none">
<path d="M6473 9663 c394 -2 1040 -2 1435 0 394 1 71 2 -718 2 -789 0 -1112
-1 -717 -2z"/>
<path d="M5653 9653 c15 -2 37 -2 50 0 12 2 0 4 -28 4 -27 0 -38 -2 -22 -4z"/>
<path d="M8688 9653 c12 -2 32 -2 45 0 12 2 2 4 -23 4 -25 0 -35 -2 -22 -4z"/>
<path d="M5583 9643 c9 -2 23 -2 30 0 6 3 -1 5 -18 5 -16 0 -22 -2 -12 -5z"/>
<path d="M8847 9630 c45 -10 104 -28 129 -40 26 -11 49 -19 51 -16 13 12 -193
77 -242 75 -11 0 17 -9 62 -19z"/>
<path d="M5505 9630 c-25 -11 1 -11 35 0 20 6 21 8 5 8 -11 0 -29 -3 -40 -8z"/>
<path d="M5660 9619 c-339 -37 -568 -228 -652 -541 l-23 -83 -5 -1955 c-3
-1075 -5 -2853 -5 -3950 0 -1861 1 -2001 18 -2082 65 -324 250 -518 568 -594
69 -17 176 -18 1564 -22 1005 -2 1522 0 1589 8 132 14 204 33 304 81 100 48
211 148 272 245 49 78 95 211 109 319 8 56 11 1215 11 3960 0 4184 2 3979 -50
4137 -38 112 -80 179 -170 268 -128 129 -258 186 -472 209 -117 13 -2943 13
-3058 0z m3142 -181 c215 -53 358 -193 415 -408 17 -61 18 -282 18 -4025 l0
-3960 -26 -82 c-49 -157 -140 -266 -274 -330 -150 -71 -49 -67 -1665 -71
-1026 -2 -1487 0 -1565 8 -305 31 -481 176 -536 445 -18 87 -19 223 -19 3990
0 2662 3 3920 11 3964 45 278 218 443 503 481 33 4 738 7 1566 6 1363 -2 1511
-3 1572 -18z"/>
<path d="M6675 9325 c-136 -49 -164 -218 -52 -309 l39 -31 278 -3 c263 -3 281
-2 319 17 132 68 130 245 -4 319 -43 24 -519 30 -580 7z"/>
<path d="M7614 9330 c-77 -18 -134 -92 -134 -175 0 -139 153 -221 271 -146
114 72 108 245 -11 306 -35 17 -89 24 -126 15z"/>
<path d="M5415 9601 c-53 -25 -43 -26 20 -1 28 10 43 19 35 19 -8 0 -33 -8
-55 -18z"/>
<path d="M5345 9570 c-3 -6 1 -7 9 -4 18 7 21 14 7 14 -6 0 -13 -4 -16 -10z"/>
<path d="M9040 9566 c0 -3 14 -12 30 -21 17 -9 30 -13 30 -11 0 3 -13 12 -30
21 -16 9 -30 13 -30 11z"/>
<path d="M5277 9530 c-141 -89 -256 -253 -301 -427 -9 -33 -16 -69 -15 -79 0
-11 9 16 20 59 48 196 162 354 335 464 11 6 17 12 13 12 -3 1 -26 -12 -52 -29z"/>
<path d="M9110 9527 c0 -3 24 -23 54 -46 29 -23 72 -65 95 -94 74 -94 75 -95
55 -62 -29 51 -109 138 -158 173 -25 18 -46 31 -46 29z"/>
<path d="M9347 9255 c9 -19 18 -33 21 -31 4 5 -26 66 -33 66 -3 0 3 -16 12
-35z"/>
<path d="M9370 9205 c0 -5 5 -17 10 -25 5 -8 10 -10 10 -5 0 6 -5 17 -10 25
-5 8 -10 11 -10 5z"/>
<path d="M9402 9120 c0 -8 4 -26 8 -40 6 -20 8 -21 8 -5 0 11 -3 29 -8 40 -5
12 -8 14 -8 5z"/>
<path d="M9422 9030 c0 -14 2 -19 5 -12 2 6 2 18 0 25 -3 6 -5 1 -5 -13z"/>
<path d="M4947 8947 c-4 -29 -7 -290 -7 -579 0 -330 -4 -528 -10 -530 -7 -2
-6 -16 0 -38 13 -46 13 -181 -1 -217 -7 -19 -7 -29 0 -31 20 -7 11 -24 -9 -19
-11 3 -18 1 -14 -4 3 -5 12 -9 20 -9 21 0 21 -308 -1 -316 -8 -4 -15 -10 -15
-15 0 -4 7 -6 15 -3 10 4 15 0 15 -14 0 -11 -5 -22 -11 -24 -9 -3 -9 -9 0 -25
16 -32 15 -534 -1 -552 -10 -11 -10 -14 0 -18 6 -3 12 -14 12 -25 0 -14 -5
-18 -15 -14 -8 3 -15 1 -15 -3 0 -5 7 -11 15 -15 24 -9 21 -174 -2 -193 -10
-8 -12 -12 -5 -8 17 9 27 -22 12 -41 -10 -11 -10 -18 -2 -26 15 -15 17 -520 2
-548 -7 -13 -7 -21 0 -25 17 -10 12 -48 -5 -41 -8 3 -15 1 -15 -4 0 -6 7 -10
15 -10 13 0 15 -258 17 -2252 2 -1787 4 -1436 8 1697 3 2173 5 3951 4 3953 -1
1 -4 -21 -7 -51z"/>
<path d="M9433 8955 c0 -22 2 -30 4 -17 2 12 2 30 0 40 -3 9 -5 -1 -4 -23z"/>
<path d="M9445 5010 c0 -2137 1 -2879 2 -1650 3 1972 5 2235 18 2243 13 7 15
80 15 557 0 477 -2 550 -15 557 -13 8 -15 143 -18 1093 -1 597 -2 -663 -2
-2800z m25 1150 c0 -344 -4 -550 -10 -550 -6 0 -9 206 -9 550 -1 353 3 550 9
550 6 0 10 -197 10 -550z"/>
<path d="M9433 1070 c0 -25 2 -35 4 -22 2 12 2 32 0 45 -2 12 -4 2 -4 -23z"/>
<path d="M4953 1055 c0 -22 2 -30 4 -17 2 12 2 30 0 40 -3 9 -5 -1 -4 -23z"/>
<path d="M9422 1000 c0 -14 2 -19 5 -12 2 6 2 18 0 25 -3 6 -5 1 -5 -13z"/>
<path d="M4961 996 c-2 -32 29 -137 60 -204 64 -142 178 -263 318 -335 66 -35
189 -77 220 -76 9 0 -22 11 -68 25 -263 78 -446 268 -510 530 -11 43 -20 71
-20 60z"/>
<path d="M9411 944 c0 -11 3 -14 6 -6 3 7 2 16 -1 19 -3 4 -6 -2 -5 -13z"/>
<path d="M9383 858 c-12 -35 -20 -64 -18 -66 5 -5 46 109 43 119 -2 5 -13 -19
-25 -53z"/>
<path d="M9300 690 c-46 -71 -167 -181 -247 -223 -38 -20 -107 -47 -154 -61
-46 -14 -77 -25 -68 -25 31 -1 154 41 219 75 108 56 216 157 273 253 29 50 12
35 -23 -19z"/>
<path d="M5593 373 c9 -2 25 -2 35 0 9 3 1 5 -18 5 -19 0 -27 -2 -17 -5z"/>
<path d="M8763 373 c9 -2 25 -2 35 0 9 3 1 5 -18 5 -19 0 -27 -2 -17 -5z"/>
<path d="M5678 363 c18 -2 45 -2 60 0 15 2 0 4 -33 4 -33 0 -45 -2 -27 -4z"/>
<path d="M8658 363 c18 -2 45 -2 60 0 15 2 0 4 -33 4 -33 0 -45 -2 -27 -4z"/>
<path d="M5863 353 c26 -2 68 -2 95 0 26 2 4 3 -48 3 -52 0 -74 -1 -47 -3z"/>
<path d="M6248 353 c28 -2 76 -2 105 0 28 2 5 3 -53 3 -58 0 -81 -1 -52 -3z"/>
<path d="M6648 353 c28 -2 76 -2 105 0 28 2 5 3 -53 3 -58 0 -81 -1 -52 -3z"/>
<path d="M7048 353 c28 -2 76 -2 105 0 28 2 5 3 -53 3 -58 0 -81 -1 -52 -3z"/>
<path d="M7448 353 c28 -2 76 -2 105 0 28 2 5 3 -53 3 -58 0 -81 -1 -52 -3z"/>
<path d="M7848 353 c28 -2 76 -2 105 0 28 2 5 3 -53 3 -58 0 -81 -1 -52 -3z"/>
<path d="M8248 353 c28 -2 76 -2 105 0 28 2 5 3 -53 3 -58 0 -81 -1 -52 -3z"/>
</g>
</svg>
